# xmcd CD database file
#
# Track frame offsets:
#	150
#	17592
#	34142
#	54842
#	77515
#	97097
#	113505
#	128722
#	146090
#	162420
#	176792
#	183245
#	203172
#	220495
#	235310
#	248725
#	266302
#	282697
#	291802
#	305130
#
# Disc length: 4361 seconds
#
# Revision: 0
# Processed by: cddbd v1.5.1PL0 Copyright (c) Steve Scherf et al.
# Submitted via: CDex 1.51
#
DISCID=25110714
DTITLE=14 Karat Soul - Harmony The Very best Of 14 Karat Soul
DYEAR=2000
DGENRE=A Cappella
TTITLE0=Harmony
TTITLE1=Stand by me
TTITLE2=Kylie (Edited Version)
TTITLE3=Do You Need Me
TTITLE4=Imagine (Remix)
TTITLE5=Try Next
TTITLE6=Kierra, for You
TTITLE7=It's Alright
TTITLE8=Gloria
TTITLE9=The Girl In White
TTITLE10=Let's Be Friends
TTITLE11=In Love With You
TTITLE12=Say Yes
TTITLE13=Nobody
TTITLE14=Born Free
TTITLE15=Get Back In Love
TTITLE16=Too Young
TTITLE17=I Love You
TTITLE18=Beauty And The Beast
TTITLE19=Sora-ni Hoshi-ga Aruyoni (Edited Version)
EXTD=YEAR: 2000
EXTT0=
EXTT1=
EXTT2=
EXTT3=
EXTT4=
EXTT5=
EXTT6=
EXTT7=
EXTT8=
EXTT9=
EXTT10=
EXTT11=
EXTT12=
EXTT13=
EXTT14=
EXTT15=
EXTT16=
EXTT17=
EXTT18=
EXTT19=
PLAYORDER=
